<?xml version="1.0" ?><!DOCTYPE svg  PUBLIC '-//W3C//DTD SVG 1.1//EN'  'http://www.w3.org/Graphics/SVG/1.1/DTD/svg11.dtd'><svg height="8.4666mm" style="shape-rendering:geometricPrecision; text-rendering:geometricPrecision; image-rendering:optimizeQuality; fill-rule:evenodd; clip-rule:evenodd" version="1.1" viewBox="0 0 846.66 846.66" width="8.4666mm" xml:space="preserve" xmlns="http://www.w3.org/2000/svg" xmlns:xlink="http://www.w3.org/1999/xlink"><defs><style type="text/css">
   <![CDATA[
    .fil0 {fill:black;fill-rule:nonzero}
   ]]>
  </style></defs><g id="Layer_x0020_1"><path class="fil0" d="M406.19 807.1c-0.59,-1.12 -15.96,-30.98 -32.63,-84.86l-145.87 44.24c-11.36,3.45 -23.09,-4.11 -24.66,-15.92l-10.67 -79.94c-0.99,-7.63 2.62,-14.8 8.69,-18.7l-0.01 -0.02 138.41 -88.88 -8.14 -95.09 -77.6 40.32c0,22.19 1.19,39.56 -17.04,57.79 -24.45,24.45 -64.1,22.17 -85.86,-4.34l-84.76 44.03c-13.01,6.77 -28.21,-2.94 -28.21,-17.12l-0.01 -91.37c0,-6.91 3.63,-12.97 9.09,-16.39l90.68 -67.01 0 -49.63c0,-58.19 77.21,-80.3 107.73,-29.98l83.25 -61.53c-0.89,-68.73 -0.19,-120.47 9.73,-158.9 11.72,-45.4 35.1,-72.21 80.12,-84.03 3.45,-0.91 6.92,-0.82 10.12,0.08 44.81,11.87 68.1,38.66 79.8,83.95 9.92,38.43 10.62,90.17 9.73,158.9l83.25 61.53c30.52,-50.32 107.73,-28.21 107.73,29.98l0 49.63 91.92 67.93c5.09,3.78 7.79,9.59 7.79,15.47l0.06 0 0 91.37c0,14.26 -15.23,24.23 -28.88,16.78l-84.1 -43.69c-34.79,42.37 -102.9,17.26 -102.9,-36.68l0 -16.77 -77.6 -40.32 -8.14 95.09 138.41 88.88c6.81,4.38 9.95,12.31 8.53,19.81l-10.51 78.85c-1.63,12.34 -13.91,19.44 -25.42,15.69l-145.12 -44.01c-16.96,54.85 -32.59,84.8 -32.64,84.89 -7.27,14.05 -27.23,13.74 -34.27,-0.03zm-1.09 -114.11c6.39,22.53 12.73,41.26 18.23,56.05 5.5,-14.79 11.84,-33.52 18.23,-56.05l0.04 0.01c3.06,-10.52 13.84,-16.32 24.1,-13.21l142.76 43.3 6.05 -45.35 -137.95 -88.59c-6.47,-3.87 -10.33,-11.35 -9.2,-19.28 4.44,-31.24 11.11,-100.37 10.36,-132 -0.39,-16.74 15.98,-24.69 28.17,-18.35l114.59 59.53c7.39,3.65 10.15,9.63 11.04,16.54 0.98,7.61 -0.32,16.37 -0.25,24.44 0.26,31.03 32.63,29.94 38.15,11.3 3.88,-13.14 17.1,-17.98 27.64,-12.5l73.14 37.99 0 -49.91 -90.68 -67.01c-5.46,-3.41 -9.09,-9.48 -9.09,-16.39l0 -59.3c0,-24.55 -38.85,-27.59 -38.85,2.04l-0.06 0c0.01,15.37 -17.88,24.98 -30.72,15.47l-113.57 -83.92c-4.78,-3.57 -7.85,-9.28 -7.77,-15.7 1.04,-70.71 0.83,-123.07 -8.39,-158.8 -7.44,-28.83 -21.54,-46.45 -47.74,-54.83 -26.21,8.38 -40.3,26 -47.74,54.83 -9.19,35.6 -9.42,87.7 -8.4,158 0.33,6.23 -2.37,12.5 -7.76,16.5l-112.38 83.05c-12.85,10.29 -31.97,3.35 -31.97,-16.64 0,-25.53 -38.85,-25.53 -38.85,0l0 59.3 -0.06 0c0,5.89 -2.69,11.7 -7.78,15.47l-91.93 67.93 0 49.91 73.14 -37.99 0.01 0.03c10.69,-5.56 23.92,-0.04 27.38,11.66 6.31,21.41 38.09,16.66 38.09,-5.5l0 -28.49c0.02,-6.97 3.8,-13.69 10.41,-17.13l115.28 -59.88 0.02 0.05c12.52,-6.53 27.9,2.34 28.12,16.77 0.7,44.72 4.33,90.75 10.39,133.53 1.02,7.24 -2.13,14.74 -8.67,18.94l-138.48 88.93 6.05 45.35 141.58 -42.94c11.28,-3.82 22.33,2.17 25.32,12.84z"/></g></svg>