<?xml version="1.0" ?><svg id="Layer_1" style="enable-background:new 0 0 256 256;" version="1.1" viewBox="0 0 256 256" xml:space="preserve" xmlns="http://www.w3.org/2000/svg" xmlns:xlink="http://www.w3.org/1999/xlink"><g><path d="M66.8,130.4c14.1,0,27.4-5.5,37.4-15.5c10-10,15.5-23.3,15.5-37.4s-5.5-27.4-15.5-37.4c-10-10-23.3-15.5-37.4-15.5   c-14.1,0-27.4,5.5-37.4,15.5S13.9,63.4,13.9,77.5s5.5,27.4,15.5,37.4C39.4,124.9,52.7,130.4,66.8,130.4z M36.4,47.1   c8.1-8.1,18.9-12.6,30.4-12.6c11.5,0,22.3,4.5,30.4,12.6c8.1,8.1,12.6,18.9,12.6,30.4s-4.5,22.3-12.6,30.4   c-8.1,8.1-18.9,12.6-30.4,12.6s-22.3-4.5-30.4-12.6C28.3,99.8,23.8,89,23.8,77.5S28.3,55.2,36.4,47.1z"/><path d="M228.4,74.5h-93.5c-2.7,0-4.9,2.2-4.9,4.9c0,2.7,2.2,4.9,4.9,4.9h93.5c5.8,0,10.6,4.8,10.6,10.6v115.9   c0,5.8-4.8,10.6-10.6,10.6H27.6c-5.8,0-10.6-4.8-10.6-10.6V118c0-2.7-2.2-4.9-4.9-4.9s-4.9,2.2-4.9,4.9v92.8   c0,11.3,9.2,20.5,20.5,20.5h200.8c11.3,0,20.5-9.2,20.5-20.5V95C248.9,83.7,239.7,74.5,228.4,74.5z"/><path d="M154.5,140.3c-1.4-0.2-2.9-0.3-4.5-0.3c-17.8,0-32.2,14.5-32.2,32.2c0,17.8,14.5,32.2,32.2,32.2c1.6,0,3.1-0.1,4.5-0.3   c2.7-0.4,4.5-3,4.1-5.7c-0.4-2.7-3-4.5-5.7-4.1c-0.9,0.1-1.9,0.2-2.9,0.2c-12.3,0-22.4-10-22.4-22.4c0-12.3,10-22.4,22.4-22.4   c1.1,0,2,0.1,2.9,0.2c2.7,0.4,5.2-1.4,5.7-4.1C159,143.2,157.1,140.7,154.5,140.3z"/><path d="M189.7,204.4c17.8,0,32.2-14.5,32.2-32.2c0-17.8-14.5-32.2-32.2-32.2s-32.2,14.5-32.2,32.2   C157.5,189.9,171.9,204.4,189.7,204.4z M189.7,149.8c12.3,0,22.3,10,22.3,22.3c0,12.3-10,22.3-22.3,22.3c-12.3,0-22.3-10-22.3-22.3   C167.3,159.8,177.4,149.8,189.7,149.8z"/><path d="M62.1,78.7c0.1,0.3,0.1,0.6,0.2,0.8c0.1,0.3,0.3,0.5,0.5,0.7c0.2,0.3,0.4,0.6,0.7,0.9c0,0,0.1,0.1,0.1,0.1l17.4,15.2   c0.9,0.8,2.1,1.2,3.2,1.2c1.4,0,2.7-0.6,3.7-1.7c1.8-2.1,1.6-5.2-0.5-7L71.7,75.3V50.5c0-2.7-2.2-4.9-4.9-4.9s-4.9,2.2-4.9,4.9v27   c0,0.1,0,0.1,0,0.2C61.9,78,62,78.4,62.1,78.7z"/></g></svg>